STARTFONT 2.1
FONT -alevt-teletext-medium-r-normal--16-1-75-75-c-90-fontspecific-1
SIZE 1 75 75
FONTBOUNDINGBOX 9 16 0 -4
STARTPROPERTIES 10
POINT_SIZE 1
PIXEL_SIZE 16
RESOLUTION_X 75
RESOLUTION_Y 75
FONT_ASCENT 12
FONT_DESCENT 4
AVERAGE_WIDTH 90
SPACING "C"
_XMBDFED_INFO "Edited with xmbdfed 4.5."
FONT "vtxt"
ENDPROPERTIES
CHARS 250
STARTCHAR char0
ENCODING 0
SWIDTH 8640 0
DWIDTH 9 0
BBX 9 16 0 -4
BITMAP
0000
0000
0000
0000
0000
0000
0000
0000
0000
0000
0000
0000
0000
0000
0000
0000
ENDCHAR
STARTCHAR char1
ENCODING 1
SWIDTH 8640 0
DWIDTH 9 0
BBX 9 16 0 -4
BITMAP
F000
F000
F000
F000
F000
0000
0000
0000
0000
0000
0000
0000
0000
0000
0000
0000
ENDCHAR
STARTCHAR char2
ENCODING 2
SWIDTH 8640 0
DWIDTH 9 0
BBX 9 16 0 -4
BITMAP
0F80
0F80
0F80
0F80
0F80
0000
0000
0000
0000
0000
0000
0000
0000
0000
0000
0000
ENDCHAR
STARTCHAR char1
ENCODING 3
SWIDTH 8640 0
DWIDTH 9 0
BBX 9 16 0 -4
BITMAP
FF80
FF80
FF80
FF80
FF80
0000
0000
0000
0000
0000
0000
0000
0000
0000
0000
0000
ENDCHAR
STARTCHAR char0
ENCODING 4
SWIDTH 8640 0
DWIDTH 9 0
BBX 9 16 0 -4
BITMAP
0000
0000
0000
0000
0000
F000
F000
F000
F000
F000
F000
0000
0000
0000
0000
0000
ENDCHAR
STARTCHAR char1
ENCODING 5
SWIDTH 8640 0
DWIDTH 9 0
BBX 9 16 0 -4
BITMAP
F000
F000
F000
F000
F000
F000
F000
F000
F000
F000
F000
0000
0000
0000
0000
0000
ENDCHAR
STARTCHAR char2
ENCODING 6
SWIDTH 8640 0
DWIDTH 9 0
BBX 9 16 0 -4
BITMAP
0F80
0F80
0F80
0F80
0F80
F000
F000
F000
F000
F000
F000
0000
0000
0000
0000
0000
ENDCHAR
STARTCHAR char1
ENCODING 7
SWIDTH 8640 0
DWIDTH 9 0
BBX 9 16 0 -4
BITMAP
FF80
FF80
FF80
FF80
FF80
F000
F000
F000
F000
F000
F000
0000
0000
0000
0000
0000
ENDCHAR
STARTCHAR char0
ENCODING 8
SWIDTH 8640 0
DWIDTH 9 0
BBX 9 16 0 -4
BITMAP
0000
0000
0000
0000
0000
0F80
0F80
0F80
0F80
0F80
0F80
0000
0000
0000
0000
0000
ENDCHAR
STARTCHAR char1
ENCODING 9
SWIDTH 8640 0
DWIDTH 9 0
BBX 9 16 0 -4
BITMAP
F000
F000
F000
F000
F000
0F80
0F80
0F80
0F80
0F80
0F80
0000
0000
0000
0000
0000
ENDCHAR
STARTCHAR char2
ENCODING 10
SWIDTH 8640 0
DWIDTH 9 0
BBX 9 16 0 -4
BITMAP
0F80
0F80
0F80
0F80
0F80
0F80
0F80
0F80
0F80
0F80
0F80
0000
0000
0000
0000
0000
ENDCHAR
STARTCHAR char1
ENCODING 11
SWIDTH 8640 0
DWIDTH 9 0
BBX 9 16 0 -4
BITMAP
FF80
FF80
FF80
FF80
FF80
0F80
0F80
0F80
0F80
0F80
0F80
0000
0000
0000
0000
0000
ENDCHAR
STARTCHAR char0
ENCODING 12
SWIDTH 8640 0
DWIDTH 9 0
BBX 9 16 0 -4
BITMAP
0000
0000
0000
0000
0000
FF80
FF80
FF80
FF80
FF80
FF80
0000
0000
0000
0000
0000
ENDCHAR
STARTCHAR char1
ENCODING 13
SWIDTH 8640 0
DWIDTH 9 0
BBX 9 16 0 -4
BITMAP
F000
F000
F000
F000
F000
FF80
FF80
FF80
FF80
FF80
FF80
0000
0000
0000
0000
0000
ENDCHAR
STARTCHAR char2
ENCODING 14
SWIDTH 8640 0
DWIDTH 9 0
BBX 9 16 0 -4
BITMAP
0F80
0F80
0F80
0F80
0F80
FF80
FF80
FF80
FF80
FF80
FF80
0000
0000
0000
0000
0000
ENDCHAR
STARTCHAR char1
ENCODING 15
SWIDTH 8640 0
DWIDTH 9 0
BBX 9 16 0 -4
BITMAP
FF80
FF80
FF80
FF80
FF80
FF80
FF80
FF80
FF80
FF80
FF80
0000
0000
0000
0000
0000
ENDCHAR
STARTCHAR char0
ENCODING 16
SWIDTH 8640 0
DWIDTH 9 0
BBX 9 16 0 -4
BITMAP
0000
0000
0000
0000
0000
0000
0000
0000
0000
0000
0000
F000
F000
F000
0000
0000
ENDCHAR
STARTCHAR char1
ENCODING 17
SWIDTH 8640 0
DWIDTH 9 0
BBX 9 16 0 -4
BITMAP
F000
F000
F000
F000
F000
0000
0000
0000
0000
0000
0000
F000
F000
F000
0000
0000
ENDCHAR
STARTCHAR char2
ENCODING 18
SWIDTH 8640 0
DWIDTH 9 0
BBX 9 16 0 -4
BITMAP
0F80
0F80
0F80
0F80
0F80
0000
0000
0000
0000
0000
0000
F000
F000
F000
0000
0000
ENDCHAR
STARTCHAR char1
ENCODING 19
SWIDTH 8640 0
DWIDTH 9 0
BBX 9 16 0 -4
BITMAP
FF80
FF80
FF80
FF80
FF80
0000
0000
0000
0000
0000
0000
F000
F000
F000
0000
0000
ENDCHAR
STARTCHAR char0
ENCODING 20
SWIDTH 8640 0
DWIDTH 9 0
BBX 9 16 0 -4
BITMAP
0000
0000
0000
0000
0000
F000
F000
F000
F000
F000
F000
F000
F000
F000
0000
0000
ENDCHAR
STARTCHAR char1
ENCODING 21
SWIDTH 8640 0
DWIDTH 9 0
BBX 9 16 0 -4
BITMAP
F000
F000
F000
F000
F000
F000
F000
F000
F000
F000
F000
F000
F000
F000
0000
0000
ENDCHAR
STARTCHAR char2
ENCODING 22
SWIDTH 8640 0
DWIDTH 9 0
BBX 9 16 0 -4
BITMAP
0F80
0F80
0F80
0F80
0F80
F000
F000
F000
F000
F000
F000
F000
F000
F000
0000
0000
ENDCHAR
STARTCHAR char1
ENCODING 23
SWIDTH 8640 0
DWIDTH 9 0
BBX 9 16 0 -4
BITMAP
FF80
FF80
FF80
FF80
FF80
F000
F000
F000
F000
F000
F000
F000
F000
F000
0000
0000
ENDCHAR
STARTCHAR char0
ENCODING 24
SWIDTH 8640 0
DWIDTH 9 0
BBX 9 16 0 -4
BITMAP
0000
0000
0000
0000
0000
0F80
0F80
0F80
0F80
0F80
0F80
F000
F000
F000
0000
0000
ENDCHAR
STARTCHAR char1
ENCODING 25
SWIDTH 8640 0
DWIDTH 9 0
BBX 9 16 0 -4
BITMAP
F000
F000
F000
F000
F000
0F80
0F80
0F80
0F80
0F80
0F80
F000
F000
F000
0000
0000
ENDCHAR
STARTCHAR char2
ENCODING 26
SWIDTH 8640 0
DWIDTH 9 0
BBX 9 16 0 -4
BITMAP
0F80
0F80
0F80
0F80
0F80
0F80
0F80
0F80
0F80
0F80
0F80
F000
F000
F000
0000
0000
ENDCHAR
STARTCHAR char1
ENCODING 27
SWIDTH 8640 0
DWIDTH 9 0
BBX 9 16 0 -4
BITMAP
FF80
FF80
FF80
FF80
FF80
0F80
0F80
0F80
0F80
0F80
0F80
F000
F000
F000
0000
0000
ENDCHAR
STARTCHAR char0
ENCODING 28
SWIDTH 8640 0
DWIDTH 9 0
BBX 9 16 0 -4
BITMAP
0000
0000
0000
0000
0000
FF80
FF80
FF80
FF80
FF80
FF80
F000
F000
F000
0000
0000
ENDCHAR
STARTCHAR char1
ENCODING 29
SWIDTH 8640 0
DWIDTH 9 0
BBX 9 16 0 -4
BITMAP
F000
F000
F000
F000
F000
FF80
FF80
FF80
FF80
FF80
FF80
F000
F000
F000
0000
0000
ENDCHAR
STARTCHAR char2
ENCODING 30
SWIDTH 8640 0
DWIDTH 9 0
BBX 9 16 0 -4
BITMAP
0F80
0F80
0F80
0F80
0F80
FF80
FF80
FF80
FF80
FF80
FF80
F000
F000
F000
0000
0000
ENDCHAR
STARTCHAR char1
ENCODING 31
SWIDTH 8640 0
DWIDTH 9 0
BBX 9 16 0 -4
BITMAP
FF80
FF80
FF80
FF80
FF80
FF80
FF80
FF80
FF80
FF80
FF80
F000
F000
F000
0000
0000
ENDCHAR
STARTCHAR char32
ENCODING 32
SWIDTH 8640 0
DWIDTH 9 0
BBX 9 16 0 -4
BITMAP
0000
0000
0000
0000
0000
0000
0000
0000
0000
0000
0000
0000
0000
0000
0000
0000
ENDCHAR
STARTCHAR char33
ENCODING 33
SWIDTH 8640 0
DWIDTH 9 0
BBX 9 16 0 -4
BITMAP
0000
0000
1800
3C00
3C00
3C00
1800
1800
1800
0000
1800
1800
0000
0000
0000
0000
ENDCHAR
STARTCHAR char34
ENCODING 34
SWIDTH 8640 0
DWIDTH 9 0
BBX 9 16 0 -4
BITMAP
0000
6600
6600
6600
2400
0000
0000
0000
0000
0000
0000
0000
0000
0000
0000
0000
ENDCHAR
STARTCHAR char35
ENCODING 35
SWIDTH 8640 0
DWIDTH 9 0
BBX 9 16 0 -4
BITMAP
0000
0000
0000
3600
3600
7F00
3600
3600
3600
7F00
3600
3600
0000
0000
0000
0000
ENDCHAR
STARTCHAR char36
ENCODING 36
SWIDTH 8640 0
DWIDTH 9 0
BBX 9 16 0 -4
BITMAP
0C00
0C00
3E00
6300
6100
6000
3E00
0300
0300
4300
6300
3E00
0C00
0C00
0000
0000
ENDCHAR
STARTCHAR char37
ENCODING 37
SWIDTH 8640 0
DWIDTH 9 0
BBX 9 16 0 -4
BITMAP
0000
0000
0000
0000
6100
6300
0600
0C00
1800
3000
6300
4300
0000
0000
0000
0000
ENDCHAR
STARTCHAR char38
ENCODING 38
SWIDTH 8640 0
DWIDTH 9 0
BBX 9 16 0 -4
BITMAP
0000
0000
1C00
3600
3600
1C00
3B00
6E00
6600
6600
6600
3B00
0000
0000
0000
0000
ENDCHAR
STARTCHAR char39
ENCODING 39
SWIDTH 8640 0
DWIDTH 9 0
BBX 9 16 0 -4
BITMAP
0000
3000
3000
3000
6000
0000
0000
0000
0000
0000
0000
0000
0000
0000
0000
0000
ENDCHAR
STARTCHAR char40
ENCODING 40
SWIDTH 8640 0
DWIDTH 9 0
BBX 9 16 0 -4
BITMAP
0000
0000
0C00
1800
3000
3000
3000
3000
3000
3000
1800
0C00
0000
0000
0000
0000
ENDCHAR
STARTCHAR char41
ENCODING 41
SWIDTH 8640 0
DWIDTH 9 0
BBX 9 16 0 -4
BITMAP
0000
0000
3000
1800
0C00
0C00
0C00
0C00
0C00
0C00
1800
3000
0000
0000
0000
0000
ENDCHAR
STARTCHAR char42
ENCODING 42
SWIDTH 8640 0
DWIDTH 9 0
BBX 9 16 0 -4
BITMAP
0000
0000
0000
0000
0000
6600
3C00
FF00
3C00
6600
0000
0000
0000
0000
0000
0000
ENDCHAR
STARTCHAR char43
ENCODING 43
SWIDTH 8640 0
DWIDTH 9 0
BBX 9 16 0 -4
BITMAP
0000
0000
0000
0000
0000
1800
1800
7E00
1800
1800
0000
0000
0000
0000
0000
0000
ENDCHAR
STARTCHAR char44
ENCODING 44
SWIDTH 8640 0
DWIDTH 9 0
BBX 9 16 0 -4
BITMAP
0000
0000
0000
0000
0000
0000
0000
0000
0000
1800
1800
1800
3000
0000
0000
0000
ENDCHAR
STARTCHAR char45
ENCODING 45
SWIDTH 8640 0
DWIDTH 9 0
BBX 9 16 0 -4
BITMAP
0000
0000
0000
0000
0000
0000
0000
7F00
0000
0000
0000
0000
0000
0000
0000
0000
ENDCHAR
STARTCHAR char46
ENCODING 46
SWIDTH 8640 0
DWIDTH 9 0
BBX 9 16 0 -4
BITMAP
0000
0000
0000
0000
0000
0000
0000
0000
0000
0000
1800
1800
0000
0000
0000
0000
ENDCHAR
STARTCHAR char47
ENCODING 47
SWIDTH 8640 0
DWIDTH 9 0
BBX 9 16 0 -4
BITMAP
0000
0000
0000
0000
0100
0300
0600
0C00
1800
3000
6000
4000
0000
0000
0000
0000
ENDCHAR
STARTCHAR char48
ENCODING 48
SWIDTH 8640 0
DWIDTH 9 0
BBX 9 16 0 -4
BITMAP
0000
0000
3C00
6600
C300
C300
DB00
DB00
C300
C300
6600
3C00
0000
0000
0000
0000
ENDCHAR
STARTCHAR char49
ENCODING 49
SWIDTH 8640 0
DWIDTH 9 0
BBX 9 16 0 -4
BITMAP
0000
0000
1800
3800
7800
1800
1800
1800
1800
1800
1800
7E00
0000
0000
0000
0000
ENDCHAR
STARTCHAR char50
ENCODING 50
SWIDTH 8640 0
DWIDTH 9 0
BBX 9 16 0 -4
BITMAP
0000
0000
3E00
6300
0300
0600
0C00
1800
3000
6000
6300
7F00
0000
0000
0000
0000
ENDCHAR
STARTCHAR char51
ENCODING 51
SWIDTH 8640 0
DWIDTH 9 0
BBX 9 16 0 -4
BITMAP
0000
0000
3E00
6300
0300
0300
1E00
0300
0300
0300
6300
3E00
0000
0000
0000
0000
ENDCHAR
STARTCHAR char52
ENCODING 52
SWIDTH 8640 0
DWIDTH 9 0
BBX 9 16 0 -4
BITMAP
0000
0000
0600
0E00
1E00
3600
6600
7F00
0600
0600
0600
0F00
0000
0000
0000
0000
ENDCHAR
STARTCHAR char53
ENCODING 53
SWIDTH 8640 0
DWIDTH 9 0
BBX 9 16 0 -4
BITMAP
0000
0000
7F00
6000
6000
6000
7E00
0300
0300
0300
6300
3E00
0000
0000
0000
0000
ENDCHAR
STARTCHAR char54
ENCODING 54
SWIDTH 8640 0
DWIDTH 9 0
BBX 9 16 0 -4
BITMAP
0000
0000
1C00
3000
6000
6000
7E00
6300
6300
6300
6300
3E00
0000
0000
0000
0000
ENDCHAR
STARTCHAR char55
ENCODING 55
SWIDTH 8640 0
DWIDTH 9 0
BBX 9 16 0 -4
BITMAP
0000
0000
7F00
6300
0300
0300
0600
0C00
1800
1800
1800
1800
0000
0000
0000
0000
ENDCHAR
STARTCHAR char56
ENCODING 56
SWIDTH 8640 0
DWIDTH 9 0
BBX 9 16 0 -4
BITMAP
0000
0000
3E00
6300
6300
6300
3E00
6300
6300
6300
6300
3E00
0000
0000
0000
0000
ENDCHAR
STARTCHAR char57
ENCODING 57
SWIDTH 8640 0
DWIDTH 9 0
BBX 9 16 0 -4
BITMAP
0000
0000
3E00
6300
6300
6300
3F00
0300
0300
0300
0600
3C00
0000
0000
0000
0000
ENDCHAR
STARTCHAR char58
ENCODING 58
SWIDTH 8640 0
DWIDTH 9 0
BBX 9 16 0 -4
BITMAP
0000
0000
0000
0000
1800
1800
0000
0000
0000
1800
1800
0000
0000
0000
0000
0000
ENDCHAR
STARTCHAR char59
ENCODING 59
SWIDTH 8640 0
DWIDTH 9 0
BBX 9 16 0 -4
BITMAP
0000
0000
0000
0000
1800
1800
0000
0000
0000
1800
1800
1800
3000
0000
0000
0000
ENDCHAR
STARTCHAR char60
ENCODING 60
SWIDTH 8640 0
DWIDTH 9 0
BBX 9 16 0 -4
BITMAP
0000
0000
0000
0600
0C00
1800
3000
6000
3000
1800
0C00
0600
0000
0000
0000
0000
ENDCHAR
STARTCHAR char61
ENCODING 61
SWIDTH 8640 0
DWIDTH 9 0
BBX 9 16 0 -4
BITMAP
0000
0000
0000
0000
0000
7E00
0000
0000
7E00
0000
0000
0000
0000
0000
0000
0000
ENDCHAR
STARTCHAR char62
ENCODING 62
SWIDTH 8640 0
DWIDTH 9 0
BBX 9 16 0 -4
BITMAP
0000
0000
0000
6000
3000
1800
0C00
0600
0C00
1800
3000
6000
0000
0000
0000
0000
ENDCHAR
STARTCHAR char63
ENCODING 63
SWIDTH 8640 0
DWIDTH 9 0
BBX 9 16 0 -4
BITMAP
0000
0000
3E00
6300
6300
0600
0C00
0C00
0C00
0000
0C00
0C00
0000
0000
0000
0000
ENDCHAR
STARTCHAR char64
ENCODING 64
SWIDTH 8640 0
DWIDTH 9 0
BBX 9 16 0 -4
BITMAP
0000
0000
0000
3E00
6300
6300
6F00
6F00
6F00
6E00
6000
3E00
0000
0000
0000
0000
ENDCHAR
STARTCHAR char65
ENCODING 65
SWIDTH 8640 0
DWIDTH 9 0
BBX 9 16 0 -4
BITMAP
0000
0000
0800
1C00
3600
6300
6300
7F00
6300
6300
6300
6300
0000
0000
0000
0000
ENDCHAR
STARTCHAR char66
ENCODING 66
SWIDTH 8640 0
DWIDTH 9 0
BBX 9 16 0 -4
BITMAP
0000
0000
7E00
3300
3300
3300
3E00
3300
3300
3300
3300
7E00
0000
0000
0000
0000
ENDCHAR
STARTCHAR char67
ENCODING 67
SWIDTH 8640 0
DWIDTH 9 0
BBX 9 16 0 -4
BITMAP
0000
0000
1E00
3300
6100
6000
6000
6000
6000
6100
3300
1E00
0000
0000
0000
0000
ENDCHAR
STARTCHAR char68
ENCODING 68
SWIDTH 8640 0
DWIDTH 9 0
BBX 9 16 0 -4
BITMAP
0000
0000
7C00
3600
3300
3300
3300
3300
3300
3300
3600
7C00
0000
0000
0000
0000
ENDCHAR
STARTCHAR char69
ENCODING 69
SWIDTH 8640 0
DWIDTH 9 0
BBX 9 16 0 -4
BITMAP
0000
0000
7F00
3300
3100
3400
3C00
3400
3000
3100
3300
7F00
0000
0000
0000
0000
ENDCHAR
STARTCHAR char70
ENCODING 70
SWIDTH 8640 0
DWIDTH 9 0
BBX 9 16 0 -4
BITMAP
0000
0000
7F00
3300
3100
3400
3C00
3400
3000
3000
3000
7800
0000
0000
0000
0000
ENDCHAR
STARTCHAR char71
ENCODING 71
SWIDTH 8640 0
DWIDTH 9 0
BBX 9 16 0 -4
BITMAP
0000
0000
1E00
3300
6100
6000
6000
6F00
6300
6300
3300
1D00
0000
0000
0000
0000
ENDCHAR
STARTCHAR char72
ENCODING 72
SWIDTH 8640 0
DWIDTH 9 0
BBX 9 16 0 -4
BITMAP
0000
0000
6300
6300
6300
6300
7F00
6300
6300
6300
6300
6300
0000
0000
0000
0000
ENDCHAR
STARTCHAR char73
ENCODING 73
SWIDTH 8640 0
DWIDTH 9 0
BBX 9 16 0 -4
BITMAP
0000
0000
3C00
1800
1800
1800
1800
1800
1800
1800
1800
3C00
0000
0000
0000
0000
ENDCHAR
STARTCHAR char74
ENCODING 74
SWIDTH 8640 0
DWIDTH 9 0
BBX 9 16 0 -4
BITMAP
0000
0000
0F00
0600
0600
0600
0600
0600
6600
6600
6600
3C00
0000
0000
0000
0000
ENDCHAR
STARTCHAR char75
ENCODING 75
SWIDTH 8640 0
DWIDTH 9 0
BBX 9 16 0 -4
BITMAP
0000
0000
7300
3300
3300
3600
3C00
3C00
3600
3300
3300
7300
0000
0000
0000
0000
ENDCHAR
STARTCHAR char76
ENCODING 76
SWIDTH 8640 0
DWIDTH 9 0
BBX 9 16 0 -4
BITMAP
0000
0000
7800
3000
3000
3000
3000
3000
3000
3100
3300
7F00
0000
0000
0000
0000
ENDCHAR
STARTCHAR char77
ENCODING 77
SWIDTH 8640 0
DWIDTH 9 0
BBX 9 16 0 -4
BITMAP
0000
0000
C300
E700
FF00
FF00
DB00
C300
C300
C300
C300
C300
0000
0000
0000
0000
ENDCHAR
STARTCHAR char78
ENCODING 78
SWIDTH 8640 0
DWIDTH 9 0
BBX 9 16 0 -4
BITMAP
0000
0000
6300
7300
7B00
7F00
6F00
6700
6300
6300
6300
6300
0000
0000
0000
0000
ENDCHAR
STARTCHAR char79
ENCODING 79
SWIDTH 8640 0
DWIDTH 9 0
BBX 9 16 0 -4
BITMAP
0000
0000
3E00
6300
6300
6300
6300
6300
6300
6300
6300
3E00
0000
0000
0000
0000
ENDCHAR
STARTCHAR char80
ENCODING 80
SWIDTH 8640 0
DWIDTH 9 0
BBX 9 16 0 -4
BITMAP
0000
0000
7E00
3300
3300
3300
3E00
3000
3000
3000
3000
7800
0000
0000
0000
0000
ENDCHAR
STARTCHAR char81
ENCODING 81
SWIDTH 8640 0
DWIDTH 9 0
BBX 9 16 0 -4
BITMAP
0000
0000
3E00
6300
6300
6300
6300
6300
6300
6B00
6F00
3E00
0600
0700
0000
0000
ENDCHAR
STARTCHAR char82
ENCODING 82
SWIDTH 8640 0
DWIDTH 9 0
BBX 9 16 0 -4
BITMAP
0000
0000
7E00
3300
3300
3300
3E00
3600
3300
3300
3300
7300
0000
0000
0000
0000
ENDCHAR
STARTCHAR char83
ENCODING 83
SWIDTH 8640 0
DWIDTH 9 0
BBX 9 16 0 -4
BITMAP
0000
0000
3E00
6300
6300
3000
1C00
0600
0300
6300
6300
3E00
0000
0000
0000
0000
ENDCHAR
STARTCHAR char84
ENCODING 84
SWIDTH 8640 0
DWIDTH 9 0
BBX 9 16 0 -4
BITMAP
0000
0000
FF00
DB00
9900
1800
1800
1800
1800
1800
1800
3C00
0000
0000
0000
0000
ENDCHAR
STARTCHAR char85
ENCODING 85
SWIDTH 8640 0
DWIDTH 9 0
BBX 9 16 0 -4
BITMAP
0000
0000
6300
6300
6300
6300
6300
6300
6300
6300
6300
3E00
0000
0000
0000
0000
ENDCHAR
STARTCHAR char86
ENCODING 86
SWIDTH 8640 0
DWIDTH 9 0
BBX 9 16 0 -4
BITMAP
0000
0000
C300
C300
C300
C300
C300
C300
C300
6600
3C00
1800
0000
0000
0000
0000
ENDCHAR
STARTCHAR char87
ENCODING 87
SWIDTH 8640 0
DWIDTH 9 0
BBX 9 16 0 -4
BITMAP
0000
0000
C300
C300
C300
C300
C300
DB00
DB00
FF00
6600
6600
0000
0000
0000
0000
ENDCHAR
STARTCHAR char88
ENCODING 88
SWIDTH 8640 0
DWIDTH 9 0
BBX 9 16 0 -4
BITMAP
0000
0000
C300
C300
6600
3C00
1800
1800
3C00
6600
C300
C300
0000
0000
0000
0000
ENDCHAR
STARTCHAR char89
ENCODING 89
SWIDTH 8640 0
DWIDTH 9 0
BBX 9 16 0 -4
BITMAP
0000
0000
C300
C300
C300
6600
3C00
1800
1800
1800
1800
3C00
0000
0000
0000
0000
ENDCHAR
STARTCHAR char90
ENCODING 90
SWIDTH 8640 0
DWIDTH 9 0
BBX 9 16 0 -4
BITMAP
0000
0000
FF00
C300
8600
0C00
1800
3000
6000
C100
C300
FF00
0000
0000
0000
0000
ENDCHAR
STARTCHAR char91
ENCODING 91
SWIDTH 8640 0
DWIDTH 9 0
BBX 9 16 0 -4
BITMAP
0000
0000
3C00
3000
3000
3000
3000
3000
3000
3000
3000
3C00
0000
0000
0000
0000
ENDCHAR
STARTCHAR char92
ENCODING 92
SWIDTH 8640 0
DWIDTH 9 0
BBX 9 16 0 -4
BITMAP
0000
0000
0000
4000
6000
7000
3800
1C00
0E00
0700
0300
0100
0000
0000
0000
0000
ENDCHAR
STARTCHAR char93
ENCODING 93
SWIDTH 8640 0
DWIDTH 9 0
BBX 9 16 0 -4
BITMAP
0000
0000
3C00
0C00
0C00
0C00
0C00
0C00
0C00
0C00
0C00
3C00
0000
0000
0000
0000
ENDCHAR
STARTCHAR char94
ENCODING 94
SWIDTH 8640 0
DWIDTH 9 0
BBX 9 16 0 -4
BITMAP
0800
1C00
3600
6300
0000
0000
0000
0000
0000
0000
0000
0000
0000
0000
0000
0000
ENDCHAR
STARTCHAR char95
ENCODING 95
SWIDTH 8640 0
DWIDTH 9 0
BBX 9 16 0 -4
BITMAP
0000
0000
0000
0000
0000
0000
0000
0000
0000
0000
0000
0000
0000
FF80
0000
0000
ENDCHAR
STARTCHAR char96
ENCODING 96
SWIDTH 8640 0
DWIDTH 9 0
BBX 9 16 0 -4
BITMAP
3000
3000
1800
0000
0000
0000
0000
0000
0000
0000
0000
0000
0000
0000
0000
0000
ENDCHAR
STARTCHAR char97
ENCODING 97
SWIDTH 8640 0
DWIDTH 9 0
BBX 9 16 0 -4
BITMAP
0000
0000
0000
0000
0000
3C00
0600
3E00
6600
6600
6600
3B00
0000
0000
0000
0000
ENDCHAR
STARTCHAR char98
ENCODING 98
SWIDTH 8640 0
DWIDTH 9 0
BBX 9 16 0 -4
BITMAP
0000
0000
7000
3000
3000
3C00
3600
3300
3300
3300
3300
3E00
0000
0000
0000
0000
ENDCHAR
STARTCHAR char99
ENCODING 99
SWIDTH 8640 0
DWIDTH 9 0
BBX 9 16 0 -4
BITMAP
0000
0000
0000
0000
0000
3E00
6300
6000
6000
6000
6300
3E00
0000
0000
0000
0000
ENDCHAR
STARTCHAR char100
ENCODING 100
SWIDTH 8640 0
DWIDTH 9 0
BBX 9 16 0 -4
BITMAP
0000
0000
0E00
0600
0600
1E00
3600
6600
6600
6600
6600
3B00
0000
0000
0000
0000
ENDCHAR
STARTCHAR char101
ENCODING 101
SWIDTH 8640 0
DWIDTH 9 0
BBX 9 16 0 -4
BITMAP
0000
0000
0000
0000
0000
3E00
6300
7F00
6000
6000
6300
3E00
0000
0000
0000
0000
ENDCHAR
STARTCHAR char102
ENCODING 102
SWIDTH 8640 0
DWIDTH 9 0
BBX 9 16 0 -4
BITMAP
0000
0000
1C00
3600
3200
3000
7800
3000
3000
3000
3000
7800
0000
0000
0000
0000
ENDCHAR
STARTCHAR char103
ENCODING 103
SWIDTH 8640 0
DWIDTH 9 0
BBX 9 16 0 -4
BITMAP
0000
0000
0000
0000
0000
3B00
6600
6600
6600
6600
6600
3E00
0600
6600
3C00
0000
ENDCHAR
STARTCHAR char104
ENCODING 104
SWIDTH 8640 0
DWIDTH 9 0
BBX 9 16 0 -4
BITMAP
0000
0000
7000
3000
3000
3600
3B00
3300
3300
3300
3300
7300
0000
0000
0000
0000
ENDCHAR
STARTCHAR char105
ENCODING 105
SWIDTH 8640 0
DWIDTH 9 0
BBX 9 16 0 -4
BITMAP
0000
0000
1800
1800
0000
3800
1800
1800
1800
1800
1800
3C00
0000
0000
0000
0000
ENDCHAR
STARTCHAR char106
ENCODING 106
SWIDTH 8640 0
DWIDTH 9 0
BBX 9 16 0 -4
BITMAP
0000
0000
0600
0600
0000
0E00
0600
0600
0600
0600
0600
0600
6600
6600
3C00
0000
ENDCHAR
STARTCHAR char107
ENCODING 107
SWIDTH 8640 0
DWIDTH 9 0
BBX 9 16 0 -4
BITMAP
0000
0000
7000
3000
3000
3300
3600
3C00
3C00
3600
3300
7300
0000
0000
0000
0000
ENDCHAR
STARTCHAR char108
ENCODING 108
SWIDTH 8640 0
DWIDTH 9 0
BBX 9 16 0 -4
BITMAP
0000
0000
3800
1800
1800
1800
1800
1800
1800
1800
1800
3C00
0000
0000
0000
0000
ENDCHAR
STARTCHAR char109
ENCODING 109
SWIDTH 8640 0
DWIDTH 9 0
BBX 9 16 0 -4
BITMAP
0000
0000
0000
0000
0000
E600
FF00
DB00
DB00
DB00
DB00
DB00
0000
0000
0000
0000
ENDCHAR
STARTCHAR char110
ENCODING 110
SWIDTH 8640 0
DWIDTH 9 0
BBX 9 16 0 -4
BITMAP
0000
0000
0000
0000
0000
6E00
3300
3300
3300
3300
3300
3300
0000
0000
0000
0000
ENDCHAR
STARTCHAR char111
ENCODING 111
SWIDTH 8640 0
DWIDTH 9 0
BBX 9 16 0 -4
BITMAP
0000
0000
0000
0000
0000
3E00
6300
6300
6300
6300
6300
3E00
0000
0000
0000
0000
ENDCHAR
STARTCHAR char112
ENCODING 112
SWIDTH 8640 0
DWIDTH 9 0
BBX 9 16 0 -4
BITMAP
0000
0000
0000
0000
0000
6E00
3300
3300
3300
3300
3300
3E00
3000
3000
3000
0000
ENDCHAR
STARTCHAR char113
ENCODING 113
SWIDTH 8640 0
DWIDTH 9 0
BBX 9 16 0 -4
BITMAP
0000
0000
0000
0000
0000
3B00
6600
6600
6600
6600
6600
3E00
0600
0600
0600
0000
ENDCHAR
STARTCHAR char114
ENCODING 114
SWIDTH 8640 0
DWIDTH 9 0
BBX 9 16 0 -4
BITMAP
0000
0000
0000
0000
0000
6E00
3B00
3300
3000
3000
3000
7800
0000
0000
0000
0000
ENDCHAR
STARTCHAR char115
ENCODING 115
SWIDTH 8640 0
DWIDTH 9 0
BBX 9 16 0 -4
BITMAP
0000
0000
0000
0000
0000
3E00
6300
3000
1C00
0600
6300
3E00
0000
0000
0000
0000
ENDCHAR
STARTCHAR char116
ENCODING 116
SWIDTH 8640 0
DWIDTH 9 0
BBX 9 16 0 -4
BITMAP
0000
0000
0800
1800
1800
7E00
1800
1800
1800
1800
1B00
0E00
0000
0000
0000
0000
ENDCHAR
STARTCHAR char117
ENCODING 117
SWIDTH 8640 0
DWIDTH 9 0
BBX 9 16 0 -4
BITMAP
0000
0000
0000
0000
0000
6600
6600
6600
6600
6600
6600
3B00
0000
0000
0000
0000
ENDCHAR
STARTCHAR char118
ENCODING 118
SWIDTH 8640 0
DWIDTH 9 0
BBX 9 16 0 -4
BITMAP
0000
0000
0000
0000
0000
C300
C300
C300
C300
6600
3C00
1800
0000
0000
0000
0000
ENDCHAR
STARTCHAR char119
ENCODING 119
SWIDTH 8640 0
DWIDTH 9 0
BBX 9 16 0 -4
BITMAP
0000
0000
0000
0000
0000
C300
C300
C300
DB00
DB00
FF00
6600
0000
0000
0000
0000
ENDCHAR
STARTCHAR char120
ENCODING 120
SWIDTH 8640 0
DWIDTH 9 0
BBX 9 16 0 -4
BITMAP
0000
0000
0000
0000
0000
C300
6600
3C00
1800
3C00
6600
C300
0000
0000
0000
0000
ENDCHAR
STARTCHAR char121
ENCODING 121
SWIDTH 8640 0
DWIDTH 9 0
BBX 9 16 0 -4
BITMAP
0000
0000
0000
0000
0000
6300
6300
6300
6300
6300
6300
3F00
0300
0600
0C00
0000
ENDCHAR
STARTCHAR char122
ENCODING 122
SWIDTH 8640 0
DWIDTH 9 0
BBX 9 16 0 -4
BITMAP
0000
0000
0000
0000
0000
7F00
6600
0C00
1800
3000
6300
7F00
0000
0000
0000
0000
ENDCHAR
STARTCHAR char123
ENCODING 123
SWIDTH 8640 0
DWIDTH 9 0
BBX 9 16 0 -4
BITMAP
0000
0000
0E00
1800
1800
1800
7000
1800
1800
1800
1800
0E00
0000
0000
0000
0000
ENDCHAR
STARTCHAR char124
ENCODING 124
SWIDTH 8640 0
DWIDTH 9 0
BBX 9 16 0 -4
BITMAP
0000
0000
1800
1800
1800
1800
1800
1800
1800
1800
1800
1800
0000
0000
0000
0000
ENDCHAR
STARTCHAR char125
ENCODING 125
SWIDTH 8640 0
DWIDTH 9 0
BBX 9 16 0 -4
BITMAP
0000
0000
7000
1800
1800
1800
0E00
1800
1800
1800
1800
7000
0000
0000
0000
0000
ENDCHAR
STARTCHAR char126
ENCODING 126
SWIDTH 8640 0
DWIDTH 9 0
BBX 9 16 0 -4
BITMAP
0000
0000
3B00
6E00
0000
0000
0000
0000
0000
0000
0000
0000
0000
0000
0000
0000
ENDCHAR
STARTCHAR char127
ENCODING 127
SWIDTH 8640 0
DWIDTH 9 0
BBX 9 16 0 -4
BITMAP
0000
0000
0000
7F00
7F00
7F00
7F00
7F00
7F00
7F00
7F00
0000
0000
0000
0000
0000
ENDCHAR
STARTCHAR char0
ENCODING 128
SWIDTH 8640 0
DWIDTH 9 0
BBX 9 16 0 -4
BITMAP
0000
0000
0000
0000
0000
0000
0000
0000
0000
0000
0000
0F80
0F80
0F80
0000
0000
ENDCHAR
STARTCHAR char1
ENCODING 129
SWIDTH 8640 0
DWIDTH 9 0
BBX 9 16 0 -4
BITMAP
F000
F000
F000
F000
F000
0000
0000
0000
0000
0000
0000
0F80
0F80
0F80
0000
0000
ENDCHAR
STARTCHAR char2
ENCODING 130
SWIDTH 8640 0
DWIDTH 9 0
BBX 9 16 0 -4
BITMAP
0F80
0F80
0F80
0F80
0F80
0000
0000
0000
0000
0000
0000
0F80
0F80
0F80
0000
0000
ENDCHAR
STARTCHAR char1
ENCODING 131
SWIDTH 8640 0
DWIDTH 9 0
BBX 9 16 0 -4
BITMAP
FF80
FF80
FF80
FF80
FF80
0000
0000
0000
0000
0000
0000
0F80
0F80
0F80
0000
0000
ENDCHAR
STARTCHAR char0
ENCODING 132
SWIDTH 8640 0
DWIDTH 9 0
BBX 9 16 0 -4
BITMAP
0000
0000
0000
0000
0000
F000
F000
F000
F000
F000
F000
0F80
0F80
0F80
0000
0000
ENDCHAR
STARTCHAR char1
ENCODING 133
SWIDTH 8640 0
DWIDTH 9 0
BBX 9 16 0 -4
BITMAP
F000
F000
F000
F000
F000
F000
F000
F000
F000
F000
F000
0F80
0F80
0F80
0000
0000
ENDCHAR
STARTCHAR char2
ENCODING 134
SWIDTH 8640 0
DWIDTH 9 0
BBX 9 16 0 -4
BITMAP
0F80
0F80
0F80
0F80
0F80
F000
F000
F000
F000
F000
F000
0F80
0F80
0F80
0000
0000
ENDCHAR
STARTCHAR char1
ENCODING 135
SWIDTH 8640 0
DWIDTH 9 0
BBX 9 16 0 -4
BITMAP
FF80
FF80
FF80
FF80
FF80
F000
F000
F000
F000
F000
F000
0F80
0F80
0F80
0000
0000
ENDCHAR
STARTCHAR char0
ENCODING 136
SWIDTH 8640 0
DWIDTH 9 0
BBX 9 16 0 -4
BITMAP
0000
0000
0000
0000
0000
0F80
0F80
0F80
0F80
0F80
0F80
0F80
0F80
0F80
0000
0000
ENDCHAR
STARTCHAR char1
ENCODING 137
SWIDTH 8640 0
DWIDTH 9 0
BBX 9 16 0 -4
BITMAP
F000
F000
F000
F000
F000
0F80
0F80
0F80
0F80
0F80
0F80
0F80
0F80
0F80
0000
0000
ENDCHAR
STARTCHAR char2
ENCODING 138
SWIDTH 8640 0
DWIDTH 9 0
BBX 9 16 0 -4
BITMAP
0F80
0F80
0F80
0F80
0F80
0F80
0F80
0F80
0F80
0F80
0F80
0F80
0F80
0F80
0000
0000
ENDCHAR
STARTCHAR char1
ENCODING 139
SWIDTH 8640 0
DWIDTH 9 0
BBX 9 16 0 -4
BITMAP
FF80
FF80
FF80
FF80
FF80
0F80
0F80
0F80
0F80
0F80
0F80
0F80
0F80
0F80
0000
0000
ENDCHAR
STARTCHAR char0
ENCODING 140
SWIDTH 8640 0
DWIDTH 9 0
BBX 9 16 0 -4
BITMAP
0000
0000
0000
0000
0000
FF80
FF80
FF80
FF80
FF80
FF80
0F80
0F80
0F80
0000
0000
ENDCHAR
STARTCHAR char1
ENCODING 141
SWIDTH 8640 0
DWIDTH 9 0
BBX 9 16 0 -4
BITMAP
F000
F000
F000
F000
F000
FF80
FF80
FF80
FF80
FF80
FF80
0F80
0F80
0F80
0000
0000
ENDCHAR
STARTCHAR char2
ENCODING 142
SWIDTH 8640 0
DWIDTH 9 0
BBX 9 16 0 -4
BITMAP
0F80
0F80
0F80
0F80
0F80
FF80
FF80
FF80
FF80
FF80
FF80
0F80
0F80
0F80
0000
0000
ENDCHAR
STARTCHAR char1
ENCODING 143
SWIDTH 8640 0
DWIDTH 9 0
BBX 9 16 0 -4
BITMAP
FF80
FF80
FF80
FF80
FF80
FF80
FF80
FF80
FF80
FF80
FF80
0F80
0F80
0F80
0000
0000
ENDCHAR
STARTCHAR char0
ENCODING 144
SWIDTH 8640 0
DWIDTH 9 0
BBX 9 16 0 -4
BITMAP
0000
0000
0000
0000
0000
0000
0000
0000
0000
0000
0000
FF80
FF80
FF80
0000
0000
ENDCHAR
STARTCHAR char1
ENCODING 145
SWIDTH 8640 0
DWIDTH 9 0
BBX 9 16 0 -4
BITMAP
F000
F000
F000
F000
F000
0000
0000
0000
0000
0000
0000
FF80
FF80
FF80
0000
0000
ENDCHAR
STARTCHAR char2
ENCODING 146
SWIDTH 8640 0
DWIDTH 9 0
BBX 9 16 0 -4
BITMAP
0F80
0F80
0F80
0F80
0F80
0000
0000
0000
0000
0000
0000
FF80
FF80
FF80
0000
0000
ENDCHAR
STARTCHAR char1
ENCODING 147
SWIDTH 8640 0
DWIDTH 9 0
BBX 9 16 0 -4
BITMAP
FF80
FF80
FF80
FF80
FF80
0000
0000
0000
0000
0000
0000
FF80
FF80
FF80
0000
0000
ENDCHAR
STARTCHAR char0
ENCODING 148
SWIDTH 8640 0
DWIDTH 9 0
BBX 9 16 0 -4
BITMAP
0000
0000
0000
0000
0000
F000
F000
F000
F000
F000
F000
FF80
FF80
FF80
0000
0000
ENDCHAR
STARTCHAR char1
ENCODING 149
SWIDTH 8640 0
DWIDTH 9 0
BBX 9 16 0 -4
BITMAP
F000
F000
F000
F000
F000
F000
F000
F000
F000
F000
F000
FF80
FF80
FF80
0000
0000
ENDCHAR
STARTCHAR char2
ENCODING 150
SWIDTH 8640 0
DWIDTH 9 0
BBX 9 16 0 -4
BITMAP
0F80
0F80
0F80
0F80
0F80
F000
F000
F000
F000
F000
F000
FF80
FF80
FF80
0000
0000
ENDCHAR
STARTCHAR char1
ENCODING 151
SWIDTH 8640 0
DWIDTH 9 0
BBX 9 16 0 -4
BITMAP
FF80
FF80
FF80
FF80
FF80
F000
F000
F000
F000
F000
F000
FF80
FF80
FF80
0000
0000
ENDCHAR
STARTCHAR char0
ENCODING 152
SWIDTH 8640 0
DWIDTH 9 0
BBX 9 16 0 -4
BITMAP
0000
0000
0000
0000
0000
0F80
0F80
0F80
0F80
0F80
0F80
FF80
FF80
FF80
0000
0000
ENDCHAR
STARTCHAR char1
ENCODING 153
SWIDTH 8640 0
DWIDTH 9 0
BBX 9 16 0 -4
BITMAP
F000
F000
F000
F000
F000
0F80
0F80
0F80
0F80
0F80
0F80
FF80
FF80
FF80
0000
0000
ENDCHAR
STARTCHAR char2
ENCODING 154
SWIDTH 8640 0
DWIDTH 9 0
BBX 9 16 0 -4
BITMAP
0F80
0F80
0F80
0F80
0F80
0F80
0F80
0F80
0F80
0F80
0F80
FF80
FF80
FF80
0000
0000
ENDCHAR
STARTCHAR char1
ENCODING 155
SWIDTH 8640 0
DWIDTH 9 0
BBX 9 16 0 -4
BITMAP
FF80
FF80
FF80
FF80
FF80
0F80
0F80
0F80
0F80
0F80
0F80
FF80
FF80
FF80
0000
0000
ENDCHAR
STARTCHAR char0
ENCODING 156
SWIDTH 8640 0
DWIDTH 9 0
BBX 9 16 0 -4
BITMAP
0000
0000
0000
0000
0000
FF80
FF80
FF80
FF80
FF80
FF80
FF80
FF80
FF80
0000
0000
ENDCHAR
STARTCHAR char1
ENCODING 157
SWIDTH 8640 0
DWIDTH 9 0
BBX 9 16 0 -4
BITMAP
F000
F000
F000
F000
F000
FF80
FF80
FF80
FF80
FF80
FF80
FF80
FF80
FF80
0000
0000
ENDCHAR
STARTCHAR char2
ENCODING 158
SWIDTH 8640 0
DWIDTH 9 0
BBX 9 16 0 -4
BITMAP
0F80
0F80
0F80
0F80
0F80
FF80
FF80
FF80
FF80
FF80
FF80
FF80
FF80
FF80
0000
0000
ENDCHAR
STARTCHAR char1
ENCODING 159
SWIDTH 8640 0
DWIDTH 9 0
BBX 9 16 0 -4
BITMAP
FF80
FF80
FF80
FF80
FF80
FF80
FF80
FF80
FF80
FF80
FF80
FF80
FF80
FF80
0000
0000
ENDCHAR
STARTCHAR U+00A0 NO-BREAK SPACE
ENCODING 160
SWIDTH 8640 0
DWIDTH 9 0
BBX 9 16 0 -4
BITMAP
0000
0000
0000
0000
0000
0000
0000
0000
0000
0000
0000
0000
0000
0000
0000
0000
ENDCHAR
STARTCHAR U+02BD MODIFIER LETTER REVERSED COMMA
ENCODING 161
SWIDTH 8640 0
DWIDTH 9 0
BBX 9 16 0 -4
BITMAP
1800
1000
1000
0800
0000
0000
0000
0000
0000
0000
0000
0000
0000
0000
0000
0000
ENDCHAR
STARTCHAR U+02BC MODIFIER LETTER APOSTROPHE
ENCODING 162
SWIDTH 8640 0
DWIDTH 9 0
BBX 9 16 0 -4
BITMAP
1800
0800
0800
1000
0000
0000
0000
0000
0000
0000
0000
0000
0000
0000
0000
0000
ENDCHAR
STARTCHAR U+00A3 POUND SIGN
ENCODING 163
SWIDTH 8640 0
DWIDTH 9 0
BBX 9 16 0 -4
BITMAP
0000
0000
0E00
1000
1000
1000
7C00
1000
1000
1000
3E00
6100
0000
0000
0000
0000
ENDCHAR
STARTCHAR U+00A6 BROKEN BAR
ENCODING 166
SWIDTH 8640 0
DWIDTH 9 0
BBX 9 16 0 -4
BITMAP
0000
0000
0800
0800
0800
0800
0000
0000
0800
0800
0800
0800
0000
0000
0000
0000
ENDCHAR
STARTCHAR U+00A7 SECTION SIGN
ENCODING 167
SWIDTH 8640 0
DWIDTH 9 0
BBX 9 16 0 -4
BITMAP
0000
0000
3C00
4200
4000
3C00
4200
4200
3C00
0200
4200
3C00
0000
0000
0000
0000
ENDCHAR
STARTCHAR U+00A8 DIAERESIS
ENCODING 168
SWIDTH 8640 0
DWIDTH 9 0
BBX 9 16 0 -4
BITMAP
2400
2400
0000
0000
0000
0000
0000
0000
0000
0000
0000
0000
0000
0000
0000
0000
ENDCHAR
STARTCHAR U+00A9 COPYRIGHT SIGN
ENCODING 169
SWIDTH 8640 0
DWIDTH 9 0
BBX 9 16 0 -4
BITMAP
0000
0000
3C00
4200
9900
A500
A100
A100
A500
9900
4200
3C00
0000
0000
0000
0000
ENDCHAR
STARTCHAR U+00AB LEFT-POINTING DOUBLE ANGLE QUOTATION MARK
ENCODING 171
SWIDTH 8640 0
DWIDTH 9 0
BBX 9 16 0 -4
BITMAP
0000
0000
0000
1200
1200
2400
2400
4800
2400
2400
1200
1200
0000
0000
0000
0000
ENDCHAR
STARTCHAR U+00AC NOT SIGN
ENCODING 172
SWIDTH 8640 0
DWIDTH 9 0
BBX 9 16 0 -4
BITMAP
0000
0000
0000
0000
0000
0000
0000
0000
7E00
0200
0200
0200
0000
0000
0000
0000
ENDCHAR
STARTCHAR U+00AD SOFT HYPHEN
ENCODING 173
SWIDTH 8640 0
DWIDTH 9 0
BBX 9 16 0 -4
BITMAP
0000
0000
0000
0000
0000
0000
0000
7E00
0000
0000
0000
0000
0000
0000
0000
0000
ENDCHAR
STARTCHAR U+2015 HORIZONTAL BAR
ENCODING 175
SWIDTH 8640 0
DWIDTH 9 0
BBX 9 16 0 -4
BITMAP
0000
0000
0000
0000
0000
0000
0000
FF00
0000
0000
0000
0000
0000
0000
0000
0000
ENDCHAR
STARTCHAR U+00B0 DEGREE SIGN
ENCODING 176
SWIDTH 8640 0
DWIDTH 9 0
BBX 9 16 0 -4
BITMAP
1000
2800
2800
1000
0000
0000
0000
0000
0000
0000
0000
0000
0000
0000
0000
0000
ENDCHAR
STARTCHAR U+00B1 PLUS-MINUS SIGN
ENCODING 177
SWIDTH 8640 0
DWIDTH 9 0
BBX 9 16 0 -4
BITMAP
0000
0000
0800
0800
0800
7F00
0800
0800
0800
0000
7F00
0000
0000
0000
0000
0000
ENDCHAR
STARTCHAR U+00B2 SUPERSCRIPT TWO
ENCODING 178
SWIDTH 8640 0
DWIDTH 9 0
BBX 9 16 0 -4
BITMAP
1C00
2200
0200
1C00
2000
2000
3E00
0000
0000
0000
0000
0000
0000
0000
0000
0000
ENDCHAR
STARTCHAR U+00B3 SUPERSCRIPT THREE
ENCODING 179
SWIDTH 8640 0
DWIDTH 9 0
BBX 9 16 0 -4
BITMAP
1C00
2200
0200
1C00
0200
2200
1C00
0000
0000
0000
0000
0000
0000
0000
0000
0000
ENDCHAR
STARTCHAR U+0384 GREEK TONOS
ENCODING 180
SWIDTH 8640 0
DWIDTH 9 0
BBX 9 16 0 -4
BITMAP
1000
1000
1000
0000
0000
0000
0000
0000
0000
0000
0000
0000
0000
0000
0000
0000
ENDCHAR
STARTCHAR U+0385 GREEK DIALYTIKA TONOS
ENCODING 181
SWIDTH 8640 0
DWIDTH 9 0
BBX 9 16 0 -4
BITMAP
1000
1000
1000
4400
4400
0000
0000
0000
0000
0000
0000
0000
0000
0000
0000
0000
ENDCHAR
STARTCHAR U+0386 GREEK CAPITAL LETTER ALPHA WITH TONOS
ENCODING 182
SWIDTH 8640 0
DWIDTH 9 0
BBX 9 16 0 -4
BITMAP
4000
4000
0000
1800
2400
2400
4200
4200
7E00
4200
4200
4200
0000
0000
0000
0000
ENDCHAR
STARTCHAR U+00B7 MIDDLE DOT
ENCODING 183
SWIDTH 8640 0
DWIDTH 9 0
BBX 9 16 0 -4
BITMAP
0000
0000
0000
0000
0000
0000
1800
1800
0000
0000
0000
0000
0000
0000
0000
0000
ENDCHAR
STARTCHAR U+0388 GREEK CAPITAL LETTER EPSILON WITH TONOS
ENCODING 184
SWIDTH 8640 0
DWIDTH 9 0
BBX 9 16 0 -4
BITMAP
4000
4000
0000
7E00
4000
4000
4000
7C00
4000
4000
4000
7E00
0000
0000
0000
0000
ENDCHAR
STARTCHAR U+0389 GREEK CAPITAL LETTER ETA WITH TONOS
ENCODING 185
SWIDTH 8640 0
DWIDTH 9 0
BBX 9 16 0 -4
BITMAP
4000
4000
0000
4200
4200
4200
4200
7E00
4200
4200
4200
4200
0000
0000
0000
0000
ENDCHAR
STARTCHAR U+038A GREEK CAPITAL LETTER IOTA WITH TONOS
ENCODING 186
SWIDTH 8640 0
DWIDTH 9 0
BBX 9 16 0 -4
BITMAP
4000
4000
0000
3E00
0800
0800
0800
0800
0800
0800
0800
3E00
0000
0000
0000
0000
ENDCHAR
STARTCHAR U+00BB RIGHT-POINTING DOUBLE ANGLE QUOTATION MARK
ENCODING 187
SWIDTH 8640 0
DWIDTH 9 0
BBX 9 16 0 -4
BITMAP
0000
0000
0000
4800
4800
2400
2400
1200
2400
2400
4800
4800
0000
0000
0000
0000
ENDCHAR
STARTCHAR U+038C GREEK CAPITAL LETTER OMICRON WITH TONOS
ENCODING 188
SWIDTH 8640 0
DWIDTH 9 0
BBX 9 16 0 -4
BITMAP
4000
4000
0000
3C00
4200
4200
4200
4200
4200
4200
4200
3C00
0000
0000
0000
0000
ENDCHAR
STARTCHAR U+00BD VULGAR FRACTION ONE HALF
ENCODING 189
SWIDTH 8640 0
DWIDTH 9 0
BBX 9 16 0 -4
BITMAP
0000
0000
2200
6200
2400
2800
2800
1400
1A00
2200
4400
4E00
0000
0000
0000
0000
ENDCHAR
STARTCHAR U+038E GREEK CAPITAL LETTER UPSILON WITH TONOS
ENCODING 190
SWIDTH 8640 0
DWIDTH 9 0
BBX 9 16 0 -4
BITMAP
4000
4000
0000
4100
4100
2200
2200
1400
0800
0800
0800
0800
0000
0000
0000
0000
ENDCHAR
STARTCHAR U+038F GREEK CAPITAL LETTER OMEGA WITH TONOS
ENCODING 191
SWIDTH 8640 0
DWIDTH 9 0
BBX 9 16 0 -4
BITMAP
4000
4000
0000
3E00
4100
4100
4100
4100
2200
1400
1400
7700
0000
0000
0000
0000
ENDCHAR
STARTCHAR U+0390 GREEK SMALL LETTER IOTA WITH DIALYTIKA AND TONOS
ENCODING 192
SWIDTH 8640 0
DWIDTH 9 0
BBX 9 16 0 -4
BITMAP
0000
1000
5400
4400
0000
1000
1000
1000
1000
1000
1000
0C00
0000
0000
0000
0000
ENDCHAR
STARTCHAR U+0391 GREEK CAPITAL LETTER ALPHA
ENCODING 193
SWIDTH 8640 0
DWIDTH 9 0
BBX 9 16 0 -4
BITMAP
0000
0000
1800
2400
2400
4200
4200
7E00
4200
4200
4200
4200
0000
0000
0000
0000
ENDCHAR
STARTCHAR U+0392 GREEK CAPITAL LETTER BETA
ENCODING 194
SWIDTH 8640 0
DWIDTH 9 0
BBX 9 16 0 -4
BITMAP
0000
0000
7C00
4200
4200
4200
7C00
4200
4200
4200
4200
7C00
0000
0000
0000
0000
ENDCHAR
STARTCHAR U+0393 GREEK CAPITAL LETTER GAMMA
ENCODING 195
SWIDTH 8640 0
DWIDTH 9 0
BBX 9 16 0 -4
BITMAP
0000
0000
7E00
4000
4000
4000
4000
4000
4000
4000
4000
4000
0000
0000
0000
0000
ENDCHAR
STARTCHAR U+0394 GREEK CAPITAL LETTER DELTA
ENCODING 196
SWIDTH 8640 0
DWIDTH 9 0
BBX 9 16 0 -4
BITMAP
0000
0000
0800
0800
1400
1400
2200
2200
2200
4100
4100
7F00
0000
0000
0000
0000
ENDCHAR
STARTCHAR U+0395 GREEK CAPITAL LETTER EPSILON
ENCODING 197
SWIDTH 8640 0
DWIDTH 9 0
BBX 9 16 0 -4
BITMAP
0000
0000
7E00
4000
4000
4000
7C00
4000
4000
4000
4000
7E00
0000
0000
0000
0000
ENDCHAR
STARTCHAR U+0396 GREEK CAPITAL LETTER ZETA
ENCODING 198
SWIDTH 8640 0
DWIDTH 9 0
BBX 9 16 0 -4
BITMAP
0000
0000
7E00
0200
0200
0400
0800
1000
2000
4000
4000
7E00
0000
0000
0000
0000
ENDCHAR
STARTCHAR U+0397 GREEK CAPITAL LETTER ETA
ENCODING 199
SWIDTH 8640 0
DWIDTH 9 0
BBX 9 16 0 -4
BITMAP
0000
0000
4200
4200
4200
4200
7E00
4200
4200
4200
4200
4200
0000
0000
0000
0000
ENDCHAR
STARTCHAR U+0398 GREEK CAPITAL LETTER THETA
ENCODING 200
SWIDTH 8640 0
DWIDTH 9 0
BBX 9 16 0 -4
BITMAP
0000
0000
3C00
4200
4200
4200
7E00
4200
4200
4200
4200
3C00
0000
0000
0000
0000
ENDCHAR
STARTCHAR U+0399 GREEK CAPITAL LETTER IOTA
ENCODING 201
SWIDTH 8640 0
DWIDTH 9 0
BBX 9 16 0 -4
BITMAP
0000
0000
3E00
0800
0800
0800
0800
0800
0800
0800
0800
3E00
0000
0000
0000
0000
ENDCHAR
STARTCHAR U+039A GREEK CAPITAL LETTER KAPPA
ENCODING 202
SWIDTH 8640 0
DWIDTH 9 0
BBX 9 16 0 -4
BITMAP
0000
0000
4200
4400
4800
5000
6000
6000
5000
4800
4400
4200
0000
0000
0000
0000
ENDCHAR
STARTCHAR U+039B GREEK CAPITAL LETTER LAMDA
ENCODING 203
SWIDTH 8640 0
DWIDTH 9 0
BBX 9 16 0 -4
BITMAP
0000
0000
0800
0800
1400
1400
2200
2200
2200
4100
4100
4100
0000
0000
0000
0000
ENDCHAR
STARTCHAR U+039C GREEK CAPITAL LETTER MU
ENCODING 204
SWIDTH 8640 0
DWIDTH 9 0
BBX 9 16 0 -4
BITMAP
0000
0000
4200
4200
6600
6600
5A00
5A00
4200
4200
4200
4200
0000
0000
0000
0000
ENDCHAR
STARTCHAR U+039D GREEK CAPITAL LETTER NU
ENCODING 205
SWIDTH 8640 0
DWIDTH 9 0
BBX 9 16 0 -4
BITMAP
0000
0000
4200
6200
6200
5200
5200
4A00
4A00
4600
4600
4200
0000
0000
0000
0000
ENDCHAR
STARTCHAR U+039E GREEK CAPITAL LETTER XI
ENCODING 206
SWIDTH 8640 0
DWIDTH 9 0
BBX 9 16 0 -4
BITMAP
0000
0000
7E00
0000
0000
0000
3C00
0000
0000
0000
0000
7E00
0000
0000
0000
0000
ENDCHAR
STARTCHAR U+039F GREEK CAPITAL LETTER OMICRON
ENCODING 207
SWIDTH 8640 0
DWIDTH 9 0
BBX 9 16 0 -4
BITMAP
0000
0000
3C00
4200
4200
4200
4200
4200
4200
4200
4200
3C00
0000
0000
0000
0000
ENDCHAR
STARTCHAR U+03A0 GREEK CAPITAL LETTER PI
ENCODING 208
SWIDTH 8640 0
DWIDTH 9 0
BBX 9 16 0 -4
BITMAP
0000
0000
7F00
2200
2200
2200
2200
2200
2200
2200
2200
2200
0000
0000
0000
0000
ENDCHAR
STARTCHAR U+03A1 GREEK CAPITAL LETTER RHO
ENCODING 209
SWIDTH 8640 0
DWIDTH 9 0
BBX 9 16 0 -4
BITMAP
0000
0000
7C00
4200
4200
4200
7C00
4000
4000
4000
4000
4000
0000
0000
0000
0000
ENDCHAR
STARTCHAR U+03A3 GREEK CAPITAL LETTER SIGMA
ENCODING 211
SWIDTH 8640 0
DWIDTH 9 0
BBX 9 16 0 -4
BITMAP
0000
0000
7E00
4000
2000
1000
0800
0800
1000
2000
4000
7E00
0000
0000
0000
0000
ENDCHAR
STARTCHAR U+03A4 GREEK CAPITAL LETTER TAU
ENCODING 212
SWIDTH 8640 0
DWIDTH 9 0
BBX 9 16 0 -4
BITMAP
0000
0000
7F00
0800
0800
0800
0800
0800
0800
0800
0800
0800
0000
0000
0000
0000
ENDCHAR
STARTCHAR U+03A5 GREEK CAPITAL LETTER UPSILON
ENCODING 213
SWIDTH 8640 0
DWIDTH 9 0
BBX 9 16 0 -4
BITMAP
0000
0000
4100
4100
2200
2200
1400
0800
0800
0800
0800
0800
0000
0000
0000
0000
ENDCHAR
STARTCHAR U+03A6 GREEK CAPITAL LETTER PHI
ENCODING 214
SWIDTH 8640 0
DWIDTH 9 0
BBX 9 16 0 -4
BITMAP
0000
0000
1C00
0800
3E00
4900
4900
4900
4900
3E00
0800
1C00
0000
0000
0000
0000
ENDCHAR
STARTCHAR U+03A7 GREEK CAPITAL LETTER CHI
ENCODING 215
SWIDTH 8640 0
DWIDTH 9 0
BBX 9 16 0 -4
BITMAP
0000
0000
4200
4200
2400
2400
1800
1800
2400
2400
4200
4200
0000
0000
0000
0000
ENDCHAR
STARTCHAR U+03A8 GREEK CAPITAL LETTER PSI
ENCODING 216
SWIDTH 8640 0
DWIDTH 9 0
BBX 9 16 0 -4
BITMAP
0000
0000
4900
4900
4900
4900
4900
3E00
0800
0800
0800
0800
0000
0000
0000
0000
ENDCHAR
STARTCHAR U+03A9 GREEK CAPITAL LETTER OMEGA
ENCODING 217
SWIDTH 8640 0
DWIDTH 9 0
BBX 9 16 0 -4
BITMAP
0000
0000
3E00
4100
4100
4100
4100
4100
2200
1400
1400
7700
0000
0000
0000
0000
ENDCHAR
STARTCHAR U+03AA GREEK CAPITAL LETTER IOTA WITH DIALYTIKA
ENCODING 218
SWIDTH 8640 0
DWIDTH 9 0
BBX 9 16 0 -4
BITMAP
2400
2400
0000
3E00
0800
0800
0800
0800
0800
0800
0800
3E00
0000
0000
0000
0000
ENDCHAR
STARTCHAR U+03AB GREEK CAPITAL LETTER UPSILON WITH DIALYTIKA
ENCODING 219
SWIDTH 8640 0
DWIDTH 9 0
BBX 9 16 0 -4
BITMAP
2400
2400
0000
4100
4100
2200
2200
1400
0800
0800
0800
0800
0000
0000
0000
0000
ENDCHAR
STARTCHAR U+03AC GREEK SMALL LETTER ALPHA WITH TONOS
ENCODING 220
SWIDTH 8640 0
DWIDTH 9 0
BBX 9 16 0 -4
BITMAP
1000
1000
0000
0000
3200
4A00
4400
4400
4400
4400
4A00
3200
0000
0000
0000
0000
ENDCHAR
STARTCHAR U+03AD GREEK SMALL LETTER EPSILON WITH TONOS
ENCODING 221
SWIDTH 8640 0
DWIDTH 9 0
BBX 9 16 0 -4
BITMAP
1000
1000
0000
0000
3E00
4000
4000
3C00
4000
4000
4000
3E00
0000
0000
0000
0000
ENDCHAR
STARTCHAR U+03AE GREEK SMALL LETTER ETA WITH TONOS
ENCODING 222
SWIDTH 8640 0
DWIDTH 9 0
BBX 9 16 0 -4
BITMAP
1000
1000
0000
0000
5C00
6200
4200
4200
4200
4200
4200
4200
0200
0000
0000
0000
ENDCHAR
STARTCHAR U+03AF GREEK SMALL LETTER IOTA WITH TONOS
ENCODING 223
SWIDTH 8640 0
DWIDTH 9 0
BBX 9 16 0 -4
BITMAP
1000
1000
0000
0000
1000
1000
1000
1000
1000
1000
1000
0C00
0000
0000
0000
0000
ENDCHAR
STARTCHAR U+03B0 GREEK SMALL LETTER UPSILON WITH DIALYTIKA AND TONOS
ENCODING 224
SWIDTH 8640 0
DWIDTH 9 0
BBX 9 16 0 -4
BITMAP
1000
1000
4400
4400
0000
4200
4200
4200
4200
4200
4200
3C00
0000
0000
0000
0000
ENDCHAR
STARTCHAR U+03B1 GREEK SMALL LETTER ALPHA
ENCODING 225
SWIDTH 8640 0
DWIDTH 9 0
BBX 9 16 0 -4
BITMAP
0000
0000
0000
0000
3200
4A00
4400
4400
4400
4400
4A00
3200
0000
0000
0000
0000
ENDCHAR
STARTCHAR U+03B2 GREEK SMALL LETTER BETA
ENCODING 226
SWIDTH 8640 0
DWIDTH 9 0
BBX 9 16 0 -4
BITMAP
0000
0000
3800
4400
4400
4400
7C00
4200
4200
4200
6200
5C00
4000
4000
0000
0000
ENDCHAR
STARTCHAR U+03B3 GREEK SMALL LETTER GAMMA
ENCODING 227
SWIDTH 8640 0
DWIDTH 9 0
BBX 9 16 0 -4
BITMAP
0000
0000
0000
0000
3100
4900
0A00
0400
0800
0800
1000
1000
0000
0000
0000
0000
ENDCHAR
STARTCHAR U+03B4 GREEK SMALL LETTER DELTA
ENCODING 228
SWIDTH 8640 0
DWIDTH 9 0
BBX 9 16 0 -4
BITMAP
0000
0000
1C00
2000
2000
2000
1800
2400
4200
4200
4200
3C00
0000
0000
0000
0000
ENDCHAR
STARTCHAR U+03B5 GREEK SMALL LETTER EPSILON
ENCODING 229
SWIDTH 8640 0
DWIDTH 9 0
BBX 9 16 0 -4
BITMAP
0000
0000
0000
0000
3C00
4200
4000
3C00
4000
4000
4200
3C00
0000
0000
0000
0000
ENDCHAR
STARTCHAR U+03B6 GREEK SMALL LETTER ZETA
ENCODING 230
SWIDTH 8640 0
DWIDTH 9 0
BBX 9 16 0 -4
BITMAP
0000
0000
2000
2000
1C00
0800
1000
2000
2000
2000
2000
1C00
0200
1C00
0000
0000
ENDCHAR
STARTCHAR U+03B7 GREEK SMALL LETTER ETA
ENCODING 231
SWIDTH 8640 0
DWIDTH 9 0
BBX 9 16 0 -4
BITMAP
0000
0000
0000
0000
5C00
6200
4200
4200
4200
4200
4200
4200
0200
0200
0000
0000
ENDCHAR
STARTCHAR U+03B8 GREEK SMALL LETTER THETA
ENCODING 232
SWIDTH 8640 0
DWIDTH 9 0
BBX 9 16 0 -4
BITMAP
0000
0000
1800
2400
2400
4200
7E00
4200
4200
2400
2400
1800
0000
0000
0000
0000
ENDCHAR
STARTCHAR U+03B9 GREEK SMALL LETTER IOTA
ENCODING 233
SWIDTH 8640 0
DWIDTH 9 0
BBX 9 16 0 -4
BITMAP
0000
0000
0000
0000
1000
1000
1000
1000
1000
1000
1000
0C00
0000
0000
0000
0000
ENDCHAR
STARTCHAR U+03BA GREEK SMALL LETTER KAPPA
ENCODING 234
SWIDTH 8640 0
DWIDTH 9 0
BBX 9 16 0 -4
BITMAP
0000
0000
0000
0000
2200
2400
2800
3000
3000
2800
2400
2200
0000
0000
0000
0000
ENDCHAR
STARTCHAR U+03BB GREEK SMALL LETTER LAMDA
ENCODING 235
SWIDTH 8640 0
DWIDTH 9 0
BBX 9 16 0 -4
BITMAP
0000
0000
2000
2000
1000
1000
0800
1800
2400
2400
4200
4200
0000
0000
0000
0000
ENDCHAR
STARTCHAR U+03BC GREEK SMALL LETTER MU
ENCODING 236
SWIDTH 8640 0
DWIDTH 9 0
BBX 9 16 0 -4
BITMAP
0000
0000
0000
0000
4200
4200
4200
4200
6600
6600
5A00
4200
4000
4000
0000
0000
ENDCHAR
STARTCHAR U+03BD GREEK SMALL LETTER NU
ENCODING 237
SWIDTH 8640 0
DWIDTH 9 0
BBX 9 16 0 -4
BITMAP
0000
0000
0000
0000
4200
4200
4200
4400
4400
4800
5000
6000
0000
0000
0000
0000
ENDCHAR
STARTCHAR U+03BE GREEK SMALL LETTER XI
ENCODING 238
SWIDTH 8640 0
DWIDTH 9 0
BBX 9 16 0 -4
BITMAP
0000
0000
4000
4000
3C00
4000
4000
3C00
4000
4000
3C00
0200
0200
3C00
0000
0000
ENDCHAR
STARTCHAR U+03BF GREEK SMALL LETTER OMICRON
ENCODING 239
SWIDTH 8640 0
DWIDTH 9 0
BBX 9 16 0 -4
BITMAP
0000
0000
0000
0000
3C00
4200
4200
4200
4200
4200
4200
3C00
0000
0000
0000
0000
ENDCHAR
STARTCHAR U+03C0 GREEK SMALL LETTER PI
ENCODING 240
SWIDTH 8640 0
DWIDTH 9 0
BBX 9 16 0 -4
BITMAP
0000
0000
0000
0000
7E00
2400
2400
2400
2400
2400
2400
2400
0000
0000
0000
0000
ENDCHAR
STARTCHAR U+03C1 GREEK SMALL LETTER RHO
ENCODING 241
SWIDTH 8640 0
DWIDTH 9 0
BBX 9 16 0 -4
BITMAP
0000
0000
0000
0000
3C00
4200
4200
4200
4200
4200
6200
5C00
4000
4000
0000
0000
ENDCHAR
STARTCHAR U+03C2 GREEK SMALL LETTER FINAL SIGMA
ENCODING 242
SWIDTH 8640 0
DWIDTH 9 0
BBX 9 16 0 -4
BITMAP
0000
0000
0000
0000
1E00
2000
4000
4000
4000
2000
1C00
0200
0200
1C00
0000
0000
ENDCHAR
STARTCHAR U+03C3 GREEK SMALL LETTER SIGMA
ENCODING 243
SWIDTH 8640 0
DWIDTH 9 0
BBX 9 16 0 -4
BITMAP
0000
0000
0000
0000
3F00
4800
4400
4400
4400
4400
4400
3800
0000
0000
0000
0000
ENDCHAR
STARTCHAR U+03C4 GREEK SMALL LETTER TAU
ENCODING 244
SWIDTH 8640 0
DWIDTH 9 0
BBX 9 16 0 -4
BITMAP
0000
0000
0000
0000
7E00
1000
1000
1000
1000
1000
1000
0C00
0000
0000
0000
0000
ENDCHAR
STARTCHAR U+03C5 GREEK SMALL LETTER UPSILON
ENCODING 245
SWIDTH 8640 0
DWIDTH 9 0
BBX 9 16 0 -4
BITMAP
0000
0000
0000
0000
4200
4200
4200
4200
4200
4200
4200
3C00
0000
0000
0000
0000
ENDCHAR
STARTCHAR U+03C6 GREEK SMALL LETTER PHI
ENCODING 246
SWIDTH 8640 0
DWIDTH 9 0
BBX 9 16 0 -4
BITMAP
0000
0000
0000
0000
3E00
4900
4900
4900
4900
4900
4900
3E00
0800
0800
0000
0000
ENDCHAR
STARTCHAR U+03C7 GREEK SMALL LETTER CHI
ENCODING 247
SWIDTH 8640 0
DWIDTH 9 0
BBX 9 16 0 -4
BITMAP
0000
0000
0000
0000
4200
4200
2400
2400
1800
1800
2400
2400
4200
4200
0000
0000
ENDCHAR
STARTCHAR U+03C8 GREEK SMALL LETTER PSI
ENCODING 248
SWIDTH 8640 0
DWIDTH 9 0
BBX 9 16 0 -4
BITMAP
0000
0000
0000
0000
0000
0000
4900
4900
4900
4900
4900
3E00
0800
0800
0000
0000
ENDCHAR
STARTCHAR U+03C9 GREEK SMALL LETTER OMEGA
ENCODING 249
SWIDTH 8640 0
DWIDTH 9 0
BBX 9 16 0 -4
BITMAP
0000
0000
0000
0000
2200
4100
4100
4900
4900
4900
4900
3600
0000
0000
0000
0000
ENDCHAR
STARTCHAR U+03CA GREEK SMALL LETTER IOTA WITH DIALYTIKA
ENCODING 250
SWIDTH 8640 0
DWIDTH 9 0
BBX 9 16 0 -4
BITMAP
2400
2400
0000
0000
1000
1000
1000
1000
1000
1000
1000
0C00
0000
0000
0000
0000
ENDCHAR
STARTCHAR U+03CB GREEK SMALL LETTER UPSILON WITH DIALYTIKA
ENCODING 251
SWIDTH 8640 0
DWIDTH 9 0
BBX 9 16 0 -4
BITMAP
2400
2400
0000
0000
4200
4200
4200
4200
4200
4200
4200
3C00
0000
0000
0000
0000
ENDCHAR
STARTCHAR U+03CC GREEK SMALL LETTER OMICRON WITH TONOS
ENCODING 252
SWIDTH 8640 0
DWIDTH 9 0
BBX 9 16 0 -4
BITMAP
1000
1000
0000
0000
3C00
4200
4200
4200
4200
4200
4200
3C00
0000
0000
0000
0000
ENDCHAR
STARTCHAR U+03CD GREEK SMALL LETTER UPSILON WITH TONOS
ENCODING 253
SWIDTH 8640 0
DWIDTH 9 0
BBX 9 16 0 -4
BITMAP
1000
1000
0000
0000
4200
4200
4200
4200
4200
4200
4200
3C00
0000
0000
0000
0000
ENDCHAR
STARTCHAR U+03CE GREEK SMALL LETTER OMEGA WITH TONOS
ENCODING 254
SWIDTH 8640 0
DWIDTH 9 0
BBX 9 16 0 -4
BITMAP
0800
0800
0000
0000
2200
4100
4100
4900
4900
4900
4900
3600
0000
0000
0000
0000
ENDCHAR
ENDFONT
